# xmcd
#
# Track frame offsets:
#	150
#	1183
#	12768
#	23682
#	38724
#	47205
#	65085
#	76383
#	90422
#	108676
#	130775
#	137314
#	151301
#	164509
#	180682
#	201751
#	204448
#	217561
#	237410
#	249704
#	259912
#	273478
#	281945
#	286291
#	306325
#	309060
#	332519
#
# Disc length: 4469 seconds
#
# Revision: 1
# Processed by: cddbd v1.5.1PL0 Copyright (c) Steve Scherf et al.
# Submitted via: audiograbber 1.83.01
#
DISCID=7411731b
DTITLE=Jimmy Ellis - Salute To Elvis On His Birthday
DYEAR=1988
DGENRE=Oldies
TTITLE0=Introduction
TTITLE1=See See Rider/Thats Alright Mama
TTITLE2=Burning Love
TTITLE3=You Don't Have To Say You Love Me
TTITLE4=Hurt
TTITLE5=Trouble
TTITLE6=Heartbreak Hotel
TTITLE7=Kentucky Rain
TTITLE8=It's Now Or Never
TTITLE9=Jailhouse Rock/Teddy Bear/Hound Dog/Don't Be Cruel/Suspicious Minds
TTITLE10=Love Me
TTITLE11=If I Can Dream
TTITLE12=Moody Blue
TTITLE13=Memories
TTITLE14=Lawdy Miss Clawdy/Wear My Ring Around Your Neck/Baby I Don't Care/Trea
TTITLE14=t me Nice
TTITLE15=Band Intros
TTITLE16=I Really Don't Want To Know
TTITLE17=Stranger In The Crowd
TTITLE18=I Want You I Need You I Love You
TTITLE19=All Shook Up
TTITLE20=The Wonder Of You
TTITLE21=Can't Helping Falling In Love
TTITLE22=Closing Vamp
TTITLE23=My Way
TTITLE24=Closing Vamp
TTITLE25=An American Trilogy
TTITLE26=Closing Vamp
EXTD=A Concert by Jimmy Ellis or Orion in true Elvis spirit
EXTT0=
EXTT1=
EXTT2=
EXTT3=
EXTT4=
EXTT5=
EXTT6=
EXTT7=
EXTT8=
EXTT9=
EXTT10=
EXTT11=
EXTT12=
EXTT13=
EXTT14=
EXTT15=
EXTT16=
EXTT17=
EXTT18=
EXTT19=
EXTT20=
EXTT21=
EXTT22=
EXTT23=
EXTT24=
EXTT25=
EXTT26=
PLAYORDER=
